<?xml version="1.0" encoding="UTF-8" standalone="no"?>
<!-- Created with Inkscape (http://www.inkscape.org/) -->

<svg
   version="1.1"
   id="svg1"
   width="1024"
   height="1024"
   viewBox="0 0 1024 1024"
   xmlns="http://www.w3.org/2000/svg"
   xmlns:svg="http://www.w3.org/2000/svg">
  <defs
     id="defs1" />
  <g
     id="layer2"
     style="display:inline">
    <g
       id="g21"
       transform="matrix(1.4253617,0,0,1.4253617,-195.42423,-255.53572)">
      <path
         style="display:inline;fill:#5fb840;fill-opacity:1;stroke:none;stroke-width:0;stroke-linecap:round;stroke-linejoin:round;stroke-dasharray:none;stroke-opacity:1"
         d="m 680.04774,433.86871 c -48.78297,37.28673 -94.28623,75.10844 -122.15261,97.78839 -33.79227,27.50292 -61.60868,63.71204 -61.60868,63.71204 l 4.36487,50.63257 82.93265,-8.72976 54.99745,-37.53793 39.28389,-72.89344 z"
         id="path19" />
      <path
         style="display:inline;fill:#5fb840;fill-opacity:1;stroke:none;stroke-width:0;stroke-linecap:round;stroke-linejoin:round;stroke-dasharray:none;stroke-opacity:1"
         d="m 309.90622,437.7971 c 80.7904,17.885 143.1796,54.80418 165.36597,85.12801 36.28514,49.59371 12.29701,69.14688 15.7764,115.65631 L 305.10486,496.28644 Z"
         id="path18" />
      <path
         style="display:inline;fill:#5fb840;fill-opacity:1;stroke:none;stroke-width:0;stroke-linecap:round;stroke-linejoin:round;stroke-dasharray:none;stroke-opacity:1"
         d="m 393.27536,384.54561 99.51918,91.6624 110.86786,-77.6948 C 585.84968,332.8566 568.84842,269.02546 498.0324,226.1006 450.49908,263.03092 409.62651,308.34885 393.27536,384.54561 Z"
         id="path20" />
      <path
         style="display:inline;fill:#3f922a;fill-opacity:1;stroke:none;stroke-width:0;stroke-linecap:round;stroke-linejoin:round;stroke-dasharray:none;stroke-opacity:1"
         d="m 302.48593,476.6445 c 35.50612,40.74614 78.97663,91.31858 188.99915,140.54902 -26.32527,36.70661 -107.21792,39.64637 -167.17476,-48.45013 z"
         id="path15" />
      <path
         style="display:inline;fill:#3f922a;fill-opacity:1;stroke:none;stroke-width:0;stroke-linecap:round;stroke-linejoin:round;stroke-dasharray:none;stroke-opacity:1"
         d="m 381.49019,412.9173 c 126.44711,76.26004 114.76308,119.98429 114.79625,120.03411 l 2.61892,-63.7272 C 421.27304,379.01272 416.17745,371.42636 402.8781,347.88065 Z"
         id="path16" />
      <path
         style="display:inline;fill:#3f922a;fill-opacity:1;stroke:none;stroke-width:0;stroke-linecap:round;stroke-linejoin:round;stroke-dasharray:none;stroke-opacity:1"
         d="m 496.72293,529.89599 59.79881,-58.05285 57.17988,-34.91902 -16.58653,-64.60017 -100.39216,84.67861 z"
         id="path17" />
      <rect
         style="display:inline;fill:#5fb840;fill-opacity:1;stroke:none;stroke-width:0;stroke-linecap:round;stroke-linejoin:round;stroke-dasharray:none;stroke-opacity:1"
         id="rect20"
         width="30.117617"
         height="80.750137"
         x="546.04602"
         y="749.01276" />
      <path
         style="display:inline;fill:#3f922a;fill-opacity:1;stroke:none;stroke-width:0;stroke-linecap:round;stroke-linejoin:round;stroke-dasharray:none;stroke-opacity:1"
         d="m 542.11764,759.052 c 18.33249,19.64195 40.15687,30.55414 40.15687,30.55414 l 0.87298,45.8312 -44.08526,0.43649 z"
         id="path21" />
      <path
         id="rect7"
         style="display:inline;fill:none;stroke:#033b30;stroke-width:30;stroke-linecap:round;stroke-linejoin:round"
         d="m 690.9599,769.96417 h 3.49198 v 33.17308 H 690.9599 Z M 588.23438,720.05273 v 134.30665 h 140.94531 v -16.47266 h 41.05469 V 737.83398 h -41.05469 v -17.78125 z m -52.625,16.77735 v 102.05859 h 51.86328 V 736.83008 Z" />
      <path
         id="path7-9"
         style="display:inline;fill:none;stroke:#033b30;stroke-width:18.6;stroke-linecap:round;stroke-linejoin:round;stroke-dasharray:none;stroke-opacity:1"
         d="m 730.14058,773.00673 h 33.60955 v 0 0 m -33.50631,30.13052 h 33.60955 v 0 0" />
      <path
         style="fill:#000000;stroke:#033b30;stroke-width:30;stroke-linecap:round;stroke-dasharray:none;stroke-opacity:1"
         d="M 495.19523,317.98125 C 493.44928,832.16369 494.977,837.40154 494.977,837.40154"
         id="path1" />
      <path
         style="fill:#000000;stroke:#033b30;stroke-width:30;stroke-linecap:round;stroke-dasharray:none;stroke-opacity:1"
         d="M 494.97698,395.02131 525.9676,371.45098"
         id="path2" />
      <path
         style="fill:none;stroke:#033b30;stroke-width:30;stroke-linecap:round;stroke-dasharray:none;stroke-opacity:1"
         d="m 315.14408,337.40494 c -2.32794,2.18245 -4.65584,4.36485 -15.01425,15.05708 -10.3584,10.69223 -28.74675,29.8937 -45.55146,61.75718 -16.80471,31.86348 -32.02553,76.38849 -32.18726,123.11214 -0.16174,46.72365 14.73558,95.6434 39.05441,137.61813 24.31882,41.97474 58.05888,77.00372 105.02576,94.0099 46.96689,17.00618 107.15958,15.98931 167.35311,14.97243"
         id="path4" />
      <path
         style="fill:none;stroke:#033b30;stroke-width:30;stroke-linecap:round;stroke-linejoin:round;stroke-dasharray:none;stroke-opacity:1"
         d="m 307.2873,434.3052 c -6.51749,27.07373 -7.56303,55.45274 -3.05541,82.93265 2.3396,14.26293 6.18024,28.33597 12.22164,41.46633 7.27908,15.82034 17.70531,30.12446 30.11765,42.33929 13.9204,13.6989 30.40317,24.83385 48.45013,32.30009 31.04952,12.84555 65.48109,14.51858 99.0827,14.40409 32.54527,-0.11089 65.80746,-1.88582 96.02728,-13.9676 33.93933,-13.56882 62.65259,-40.50982 76.82182,-74.2029 10.74811,-25.55797 13.06372,-53.90997 12.22165,-81.62319 -0.56023,-18.43741 -2.45829,-36.83404 -5.67433,-54.99744"
         id="path8" />
      <path
         style="fill:none;stroke:#033b30;stroke-width:30;stroke-linecap:round;stroke-linejoin:round;stroke-dasharray:none;stroke-opacity:1"
         d="m 586.33619,551.36871 c -37.5501,12.94645 -89.99463,78.59805 -79.13755,94.633"
         id="path10" />
      <path
         style="fill:none;stroke:#033b30;stroke-width:30;stroke-linecap:round;stroke-linejoin:round;stroke-dasharray:none;stroke-opacity:1"
         d="m 412.48082,542.99062 20.07843,-1.30947 13.9676,1.30947"
         id="path11" />
      <path
         style="fill:none;stroke:#033b30;stroke-width:30;stroke-linecap:round;stroke-linejoin:round;stroke-dasharray:none;stroke-opacity:1"
         d="m 312.52515,436.05115 c 43.44188,15.38834 72.0144,30.66045 105.20042,60.28894 42.94965,46.40691 64.75675,88.04792 70.7041,148.78864"
         id="path12" />
      <path
         style="fill:none;stroke:#033b30;stroke-width:30;stroke-linecap:round;stroke-linejoin:round;stroke-dasharray:none;stroke-opacity:1"
         d="m 383.67264,416.4092 c 22.26274,-118.81658 114.27393,-192.95577 111.30435,-193.8005 63.71189,58.54686 112.2943,141.60458 116.54219,216.49786 -43.64461,12.01211 -81.31708,57.36797 -113.48678,99.0827"
         id="path13" />
      <path
         style="fill:none;stroke:#033b30;stroke-width:30;stroke-linecap:round;stroke-linejoin:round;stroke-dasharray:none;stroke-opacity:1"
         d="m 671.75448,337.40495 c 71.96402,62.63743 128.04434,195.28732 42.77579,330.85762"
         id="path14" />
    </g>
  </g>
</svg>
